PathFileType	4	(X/Y/Z)	 s06c0001.trc
DataRate	CameraRate	NumFrames	NumMarkers	Units	OrigDataRate	OrigDataStartFrame	OrigNumFrames
200	200	4	49	mm	200	1501	2000
Frame#	Time	racr			lacr			c7			jug			rlel			rdr			llel			ldr			s2			lic			ric			lasi			rasi			rpsi			lpsi			rgt			lgt			rth1			rth2			rth3			rth4			rlfc			rmfc			rsh1			rsh2			rsh3			rsh4			rlmal			rmmal			rcal			rtoe			rmt5			rmt1			lth1			lth2			lth4			lth3			llfc			lmfc			llmal			lmmal			lcal			lmt1			lmt5			lsh1			lsh2			lsh3			lsh4			ltoe			
		X1	Y1	Z1	X2	Y2	Z2	X3	Y3	Z3	X4	Y4	Z4	X5	Y5	Z5	X6	Y6	Z6	X7	Y7	Z7	X8	Y8	Z8	X9	Y9	Z9	X10	Y10	Z10	X11	Y11	Z11	X12	Y12	Z12	X13	Y13	Z13	X14	Y14	Z14	X15	Y15	Z15	X16	Y16	Z16	X17	Y17	Z17	X18	Y18	Z18	X19	Y19	Z19	X20	Y20	Z20	X21	Y21	Z21	X22	Y22	Z22	X23	Y23	Z23	X24	Y24	Z24	X25	Y25	Z25	X26	Y26	Z26	X27	Y27	Z27	X28	Y28	Z28	X29	Y29	Z29	X30	Y30	Z30	X31	Y31	Z31	X32	Y32	Z32	X33	Y33	Z33	X34	Y34	Z34	X35	Y35	Z35	X36	Y36	Z36	X37	Y37	Z37	X38	Y38	Z38	X39	Y39	Z39	X40	Y40	Z40	X41	Y41	Z41	X42	Y42	Z42	X43	Y43	Z43	X44	Y44	Z44	X45	Y45	Z45	X46	Y46	Z46	X47	Y47	Z47	X48	Y48	Z48	X49	Y49	Z49	
1501	7.5050	220.790445	1419.606646	397.598000	221.414416	1430.164918	42.536927	182.572182	1490.889783	217.286704	305.152316	1396.751008	222.783290	245.539917	1204.141208	577.467933	353.598307	1050.134384	767.917286	228.186244	1208.176498	-129.152603	325.929861	1071.984318	-330.186905	108.750716	964.476461	230.824959	259.879567	1009.161662	50.917632	272.685150	987.473542	387.932083	312.886043	956.280403	79.563760	325.722432	946.262863	349.464662	132.512729	998.346354	258.221423	118.787918	995.580214	194.543530	235.807298	872.150252	400.978250	238.529346	897.301567	27.706179	246.466293	750.113706	420.197515	255.543587	660.522861	413.577482	219.848605	582.328732	400.046580	292.026317	656.385676	404.043310	202.861588	473.514902	380.341228	217.984195	450.410274	272.215274	172.867736	353.166519	401.915487	187.040711	267.649859	381.885914	158.982631	186.362010	370.515246	215.583331	269.920294	354.554164	154.587708	99.727297	358.439481	199.744963	121.976928	273.305173	109.487282	65.653937	297.096826	382.075600	75.670198	334.584134	280.626880	43.315291	392.329002	303.912027	59.789798	277.006004	222.925791	764.435534	11.913961	237.678263	678.432674	16.915462	274.178701	675.197558	25.327350	206.090174	595.690226	29.039854	178.577336	477.126098	49.741196	200.001071	455.792789	159.543550	154.371753	99.086498	56.010906	170.856442	121.889813	140.986734	100.982882	58.833233	110.497508	310.709044	52.469524	132.911341	289.936607	51.107412	17.828085	156.975507	370.619606	23.935569	175.154075	285.869608	36.858840	148.626968	201.856482	37.996962	205.967015	286.487737	61.384243	380.313085	71.712956	69.485502	
1502	7.5100	220.767127	1419.596433	397.593349	221.401139	1430.170030	42.522426	182.562674	1490.883275	217.270536	305.144643	1396.737133	222.772437	245.553115	1204.138387	577.464774	353.623766	1050.143365	767.900956	228.144928	1208.186060	-129.141205	325.885491	1071.985510	-330.183808	108.741320	964.467742	230.820482	259.843437	1009.166276	50.912648	272.694655	987.453233	387.927328	312.855873	956.264923	79.563586	325.714919	946.257923	349.452292	132.537319	998.319585	258.227141	118.777742	995.583665	194.544318	235.789261	872.141438	400.972423	238.509926	897.288794	27.714681	246.455451	750.092429	420.208174	255.520273	660.531153	413.584826	219.854221	582.313324	400.037271	292.003793	656.392778	404.046097	202.869094	473.513034	380.334513	217.970725	450.408828	272.224247	172.853094	353.178165	401.907022	187.053041	267.655945	381.873605	158.991708	186.347065	370.507722	215.560631	269.886507	354.535749	154.602227	99.714000	358.443983	199.744796	121.977712	273.305229	109.503066	65.633432	297.121516	382.077025	75.687050	334.589347	280.645665	43.306603	392.337918	303.896979	59.802886	276.985544	222.912271	764.429262	11.914663	237.667951	678.421212	16.920469	274.157927	675.191987	25.340426	206.090922	595.687096	29.042324	178.583361	477.123385	49.749312	200.000061	455.795367	159.544039	154.367949	99.115040	56.015811	170.858642	121.895993	140.968652	100.971123	58.836364	110.499263	310.724564	52.471427	132.905343	289.935653	51.101208	17.830850	156.977067	370.626094	23.921628	175.155299	285.875755	36.870224	148.630895	201.866568	38.007812	205.979825	286.482522	61.396555	380.309363	71.723626	69.476366	
1503	7.5150	220.756384	1419.609142	397.594098	221.390015	1430.167516	42.527352	182.535782	1490.881651	217.293582	305.123368	1396.744312	222.784575	245.548133	1204.137289	577.462893	353.646038	1050.138700	767.888829	228.109969	1208.186270	-129.146765	325.839641	1071.976989	-330.184351	108.733024	964.472068	230.833475	259.828483	1009.167368	50.919608	272.671221	987.450076	387.936645	312.829371	956.273309	79.543391	325.692368	946.308149	349.502873	132.524337	998.311645	258.234590	118.788377	995.502815	194.529658	235.780253	872.134152	400.961712	238.488226	897.293201	27.708701	246.435398	750.104615	420.191164	255.519893	660.519291	413.587774	219.845390	582.309444	400.044044	292.003637	656.399884	404.044976	202.853754	473.510452	380.342728	217.971324	450.404365	272.238469	172.854953	353.176233	401.914884	187.036813	267.688560	381.889816	159.006560	186.379000	370.513493	215.581025	269.913364	354.545786	154.579181	99.708874	358.440174	199.750110	121.989852	273.317777	109.487242	65.640237	297.106799	382.073066	75.675206	334.569397	280.641383	43.294247	392.334576	303.891155	59.798134	276.969958	222.888143	764.442643	11.915431	237.656564	678.435887	16.911777	274.152411	675.183218	25.353404	206.062004	595.691304	29.036020	178.585500	477.120883	49.757565	199.996828	455.798002	159.555254	154.367471	99.118005	56.004972	170.860025	121.887615	140.979534	100.984613	58.826536	110.494307	310.720013	52.469583	132.921950	289.931617	51.105603	17.831084	156.966233	370.633334	23.921703	175.160053	285.877308	36.859439	148.627043	201.855598	38.000150	205.961428	286.494111	61.371003	380.313220	71.728640	69.494672	
1504	7.5200	220.737624	1419.602657	397.611975	221.338764	1430.165454	42.543180	182.508399	1490.882480	217.283432	305.092034	1396.755512	222.771819	245.550319	1204.146530	577.463803	353.670530	1050.146800	767.893648	228.085967	1208.193778	-129.145842	325.794227	1071.979134	-330.190718	108.709210	964.467494	230.830735	259.767946	1009.181268	50.909938	272.652570	987.454380	387.932691	312.795114	956.281066	79.558772	325.684748	946.311243	349.495247	132.495821	998.333251	258.240759	118.758783	995.501531	194.530364	235.759759	872.138413	400.975161	238.468652	897.292496	27.720070	246.426618	750.104217	420.198383	255.506842	660.529875	413.599945	219.840512	582.316409	400.049273	291.980557	656.389521	404.049375	202.852597	473.507093	380.353071	217.955269	450.394299	272.241564	172.841291	353.171188	401.922780	187.041405	267.668033	381.883086	158.970173	186.378956	370.507512	215.564847	269.887167	354.543306	154.589140	99.719592	358.443065	199.734296	121.997169	273.317866	109.503643	65.631411	297.104857	382.084997	75.684810	334.592023	280.645487	43.320429	392.326004	303.898800	59.794599	276.997438	222.856126	764.443647	11.898213	237.639956	678.434046	16.913522	274.138085	675.204854	25.323482	206.052105	595.694934	29.057578	178.567026	477.125906	49.747023	199.985643	455.812610	159.547674	154.366638	99.094244	56.005893	170.854549	121.897026	140.978233	100.975269	58.831494	110.503727	310.736165	52.480639	132.925476	289.948216	51.102940	17.830736	156.951501	370.637381	23.908184	175.141370	285.881063	36.863681	148.653599	201.812192	38.018402	205.983124	286.490548	61.401775	380.309999	71.721232	69.493891	
